#ifndef OVERWORLD_4__MID_H
#define OVERWORLD_4__MID_H

/* file : https://files.khinsider.com/midifiles/nes/super-mario-bros./overworld-4-.mid
*/

static const unsigned char overworld_mid[] PROGMEM = {
	0x4d, 0x54, 0x68, 0x64, 0x00, 0x00, 0x00, 0x06, 0x00, 0x01, 0x00, 0x04,
	0x00, 0xc0, 0x4d, 0x54, 0x72, 0x6b, 0x00, 0x00, 0x00, 0x4a, 0x00, 0xff,
	0x03, 0x08, 0x73, 0x73, 0x62, 0x6d, 0x73, 0x68, 0x72, 0x6d, 0x00, 0xff,
	0x01, 0x21, 0x47, 0x65, 0x6e, 0x65, 0x72, 0x61, 0x74, 0x65, 0x64, 0x20,
	0x62, 0x79, 0x20, 0x4e, 0x6f, 0x74, 0x65, 0x57, 0x6f, 0x72, 0x74, 0x68,
	0x79, 0x20, 0x43, 0x6f, 0x6d, 0x70, 0x6f, 0x73, 0x65, 0x72, 0x0a, 0x00,
	0xff, 0x58, 0x04, 0x04, 0x02, 0x18, 0x08, 0x00, 0xff, 0x59, 0x02, 0x00,
	0x00, 0x00, 0xff, 0x51, 0x03, 0x08, 0xb8, 0x25, 0x00, 0xff, 0x2f, 0x00,
	0x4d, 0x54, 0x72, 0x6b, 0x00, 0x00, 0x07, 0xde, 0x00, 0xff, 0x03, 0x06,
	0x53, 0x74, 0x61, 0x66, 0x66, 0x31, 0x00, 0xc0, 0x50, 0x00, 0xb0, 0x07,
	0x7f, 0x00, 0x0a, 0x40, 0x00, 0xc0, 0x01, 0x00, 0x90, 0x4c, 0x6e, 0x2e,
	0x4c, 0x00, 0x02, 0x4c, 0x6e, 0x5e, 0x4c, 0x00, 0x02, 0x4c, 0x6e, 0x2e,
	0x4c, 0x00, 0x32, 0x48, 0x6e, 0x2e, 0x48, 0x00, 0x02, 0x4c, 0x6e, 0x5e,
	0x4c, 0x00, 0x02, 0x4f, 0x6e, 0x81, 0x20, 0x4f, 0x00, 0x81, 0x60, 0x48,
	0x6e, 0x81, 0x0e, 0x48, 0x00, 0x02, 0x43, 0x6e, 0x2e, 0x43, 0x00, 0x62,
	0x40, 0x6e, 0x5e, 0x40, 0x00, 0x32, 0x45, 0x6e, 0x5e, 0x45, 0x00, 0x02,
	0x47, 0x6e, 0x2e, 0x47, 0x00, 0x32, 0x46, 0x6e, 0x2e, 0x46, 0x00, 0x02,
	0x45, 0x6e, 0x5e, 0x45, 0x00, 0x02, 0x43, 0x6e, 0x46, 0x43, 0x00, 0x02,
	0x4c, 0x6e, 0x46, 0x4c, 0x00, 0x02, 0x4f, 0x6e, 0x2e, 0x4f, 0x00, 0x02,
	0x51, 0x6e, 0x5e, 0x51, 0x00, 0x02, 0x4d, 0x6e, 0x2e, 0x4d, 0x00, 0x02,
	0x4f, 0x6e, 0x2e, 0x4f, 0x00, 0x32, 0x4c, 0x6e, 0x5e, 0x4c, 0x00, 0x02,
	0x48, 0x6e, 0x2e, 0x48, 0x00, 0x02, 0x4a, 0x6e, 0x2e, 0x4a, 0x00, 0x02,
	0x47, 0x6e, 0x81, 0x0e, 0x47, 0x00, 0x02, 0x48, 0x6e, 0x81, 0x0e, 0x48,
	0x00, 0x02, 0x43, 0x6e, 0x2e, 0x43, 0x00, 0x62, 0x40, 0x6e, 0x5e, 0x40,
	0x00, 0x32, 0x45, 0x6e, 0x5e, 0x45, 0x00, 0x02, 0x47, 0x6e, 0x2e, 0x47,
	0x00, 0x32, 0x46, 0x6e, 0x2e, 0x46, 0x00, 0x02, 0x45, 0x6e, 0x5e, 0x45,
	0x00, 0x02, 0x43, 0x6e, 0x46, 0x43, 0x00, 0x02, 0x4c, 0x6e, 0x46, 0x4c,
	0x00, 0x02, 0x4f, 0x6e, 0x2e, 0x4f, 0x00, 0x02, 0x51, 0x6e, 0x5e, 0x51,
	0x00, 0x02, 0x4d, 0x6e, 0x2e, 0x4d, 0x00, 0x02, 0x4f, 0x6e, 0x2e, 0x4f,
	0x00, 0x32, 0x4c, 0x6e, 0x5e, 0x4c, 0x00, 0x02, 0x48, 0x6e, 0x2e, 0x48,
	0x00, 0x02, 0x4a, 0x6e, 0x2e, 0x4a, 0x00, 0x02, 0x47, 0x6e, 0x81, 0x0e,
	0x47, 0x00, 0x62, 0x4f, 0x6e, 0x2e, 0x4f, 0x00, 0x02, 0x4e, 0x6e, 0x2e,
	0x4e, 0x00, 0x02, 0x4d, 0x6e, 0x2e, 0x4d, 0x00, 0x02, 0x4b, 0x6e, 0x5e,
	0x4b, 0x00, 0x02, 0x4c, 0x6e, 0x2e, 0x4c, 0x00, 0x32, 0x44, 0x6e, 0x2e,
	0x44, 0x00, 0x02, 0x45, 0x6e, 0x2e, 0x45, 0x00, 0x02, 0x48, 0x6e, 0x2e,
	0x48, 0x00, 0x32, 0x45, 0x6e, 0x2e, 0x45, 0x00, 0x02, 0x48, 0x6e, 0x2e,
	0x48, 0x00, 0x02, 0x4a, 0x6e, 0x2e, 0x4a, 0x00, 0x62, 0x4f, 0x6e, 0x2e,
	0x4f, 0x00, 0x02, 0x4e, 0x6e, 0x2e, 0x4e, 0x00, 0x02, 0x4d, 0x6e, 0x2e,
	0x4d, 0x00, 0x02, 0x4b, 0x6e, 0x5e, 0x4b, 0x00, 0x02, 0x4c, 0x6e, 0x2e,
	0x4c, 0x00, 0x32, 0x54, 0x6e, 0x5e, 0x54, 0x00, 0x02, 0x54, 0x6e, 0x2e,
	0x54, 0x00, 0x02, 0x54, 0x6e, 0x81, 0x20, 0x54, 0x00, 0x81, 0x00, 0x4f,
	0x6e, 0x2e, 0x4f, 0x00, 0x02, 0x4e, 0x6e, 0x2e, 0x4e, 0x00, 0x02, 0x4d,
	0x6e, 0x2e, 0x4d, 0x00, 0x02, 0x4b, 0x6e, 0x5e, 0x4b, 0x00, 0x02, 0x4c,
	0x6e, 0x2e, 0x4c, 0x00, 0x32, 0x44, 0x6e, 0x2e, 0x44, 0x00, 0x02, 0x45,
	0x6e, 0x2e, 0x45, 0x00, 0x02, 0x48, 0x6e, 0x2e, 0x48, 0x00, 0x32, 0x45,
	0x6e, 0x2e, 0x45, 0x00, 0x02, 0x48, 0x6e, 0x2e, 0x48, 0x00, 0x02, 0x4a,
	0x6e, 0x2e, 0x4a, 0x00, 0x62, 0x4b, 0x6e, 0x5e, 0x4b, 0x00, 0x32, 0x4a,
	0x6e, 0x81, 0x0e, 0x4a, 0x00, 0x02, 0x48, 0x6e, 0x81, 0x20, 0x48, 0x00,
	0x82, 0x40, 0x4f, 0x6e, 0x2e, 0x4f, 0x00, 0x02, 0x4e, 0x6e, 0x2e, 0x4e,
	0x00, 0x02, 0x4d, 0x6e, 0x2e, 0x4d, 0x00, 0x02, 0x4b, 0x6e, 0x5e, 0x4b,
	0x00, 0x02, 0x4c, 0x6e, 0x2e, 0x4c, 0x00, 0x32, 0x44, 0x6e, 0x2e, 0x44,
	0x00, 0x02, 0x45, 0x6e, 0x2e, 0x45, 0x00, 0x02, 0x48, 0x6e, 0x2e, 0x48,
	0x00, 0x32, 0x45, 0x6e, 0x2e, 0x45, 0x00, 0x02, 0x48, 0x6e, 0x2e, 0x48,
	0x00, 0x02, 0x4a, 0x6e, 0x2e, 0x4a, 0x00, 0x62, 0x4f, 0x6e, 0x2e, 0x4f,
	0x00, 0x02, 0x4e, 0x6e, 0x2e, 0x4e, 0x00, 0x02, 0x4d, 0x6e, 0x2e, 0x4d,
	0x00, 0x02, 0x4b, 0x6e, 0x5e, 0x4b, 0x00, 0x02, 0x4c, 0x6e, 0x2e, 0x4c,
	0x00, 0x32, 0x54, 0x6e, 0x5e, 0x54, 0x00, 0x02, 0x54, 0x6e, 0x2e, 0x54,
	0x00, 0x02, 0x54, 0x6e, 0x81, 0x20, 0x54, 0x00, 0x81, 0x00, 0x4f, 0x6e,
	0x2e, 0x4f, 0x00, 0x02, 0x4e, 0x6e, 0x2e, 0x4e, 0x00, 0x02, 0x4d, 0x6e,
	0x2e, 0x4d, 0x00, 0x02, 0x4b, 0x6e, 0x5e, 0x4b, 0x00, 0x02, 0x4c, 0x6e,
	0x2e, 0x4c, 0x00, 0x32, 0x44, 0x6e, 0x2e, 0x44, 0x00, 0x02, 0x45, 0x6e,
	0x2e, 0x45, 0x00, 0x02, 0x48, 0x6e, 0x2e, 0x48, 0x00, 0x32, 0x45, 0x6e,
	0x2e, 0x45, 0x00, 0x02, 0x48, 0x6e, 0x2e, 0x48, 0x00, 0x02, 0x4a, 0x6e,
	0x2e, 0x4a, 0x00, 0x62, 0x4b, 0x6e, 0x5e, 0x4b, 0x00, 0x32, 0x4a, 0x6e,
	0x81, 0x0e, 0x4a, 0x00, 0x02, 0x48, 0x6e, 0x81, 0x20, 0x48, 0x00, 0x81,
	0x60, 0x48, 0x6e, 0x2e, 0x48, 0x00, 0x02, 0x48, 0x6e, 0x5e, 0x48, 0x00,
	0x02, 0x48, 0x6e, 0x2e, 0x48, 0x00, 0x32, 0x48, 0x6e, 0x2e, 0x48, 0x00,
	0x02, 0x4a, 0x6e, 0x5e, 0x4a, 0x00, 0x02, 0x4c, 0x6e, 0x2e, 0x4c, 0x00,
	0x02, 0x48, 0x6e, 0x5e, 0x48, 0x00, 0x02, 0x45, 0x6e, 0x2e, 0x45, 0x00,
	0x02, 0x43, 0x6e, 0x81, 0x20, 0x43, 0x00, 0x20, 0x48, 0x6e, 0x2e, 0x48,
	0x00, 0x02, 0x48, 0x6e, 0x5e, 0x48, 0x00, 0x02, 0x48, 0x6e, 0x2e, 0x48,
	0x00, 0x32, 0x48, 0x6e, 0x2e, 0x48, 0x00, 0x02, 0x4a, 0x6e, 0x2e, 0x4a,
	0x00, 0x02, 0x4c, 0x6e, 0x2e, 0x4c, 0x00, 0x83, 0x02, 0x48, 0x6e, 0x2e,
	0x48, 0x00, 0x02, 0x48, 0x6e, 0x5e, 0x48, 0x00, 0x02, 0x48, 0x6e, 0x2e,
	0x48, 0x00, 0x32, 0x48, 0x6e, 0x2e, 0x48, 0x00, 0x02, 0x4a, 0x6e, 0x5e,
	0x4a, 0x00, 0x02, 0x4c, 0x6e, 0x2e, 0x4c, 0x00, 0x02, 0x48, 0x6e, 0x5e,
	0x48, 0x00, 0x02, 0x45, 0x6e, 0x2e, 0x45, 0x00, 0x02, 0x43, 0x6e, 0x81,
	0x20, 0x43, 0x00, 0x20, 0x4c, 0x6e, 0x2e, 0x4c, 0x00, 0x02, 0x4c, 0x6e,
	0x5e, 0x4c, 0x00, 0x02, 0x4c, 0x6e, 0x2e, 0x4c, 0x00, 0x32, 0x48, 0x6e,
	0x2e, 0x48, 0x00, 0x02, 0x4c, 0x6e, 0x5e, 0x4c, 0x00, 0x02, 0x4f, 0x6e,
	0x81, 0x20, 0x4f, 0x00, 0x81, 0x60, 0x48, 0x6e, 0x81, 0x0e, 0x48, 0x00,
	0x02, 0x43, 0x6e, 0x2e, 0x43, 0x00, 0x62, 0x40, 0x6e, 0x5e, 0x40, 0x00,
	0x32, 0x45, 0x6e, 0x5e, 0x45, 0x00, 0x02, 0x47, 0x6e, 0x2e, 0x47, 0x00,
	0x32, 0x46, 0x6e, 0x2e, 0x46, 0x00, 0x02, 0x45, 0x6e, 0x5e, 0x45, 0x00,
	0x02, 0x43, 0x6e, 0x46, 0x43, 0x00, 0x02, 0x4c, 0x6e, 0x46, 0x4c, 0x00,
	0x02, 0x4f, 0x6e, 0x2e, 0x4f, 0x00, 0x02, 0x51, 0x6e, 0x5e, 0x51, 0x00,
	0x02, 0x4d, 0x6e, 0x2e, 0x4d, 0x00, 0x02, 0x4f, 0x6e, 0x2e, 0x4f, 0x00,
	0x32, 0x4c, 0x6e, 0x5e, 0x4c, 0x00, 0x02, 0x48, 0x6e, 0x2e, 0x48, 0x00,
	0x02, 0x4a, 0x6e, 0x2e, 0x4a, 0x00, 0x02, 0x47, 0x6e, 0x81, 0x0e, 0x47,
	0x00, 0x02, 0x48, 0x6e, 0x81, 0x0e, 0x48, 0x00, 0x02, 0x43, 0x6e, 0x2e,
	0x43, 0x00, 0x62, 0x40, 0x6e, 0x5e, 0x40, 0x00, 0x32, 0x45, 0x6e, 0x5e,
	0x45, 0x00, 0x02, 0x47, 0x6e, 0x2e, 0x47, 0x00, 0x32, 0x46, 0x6e, 0x2e,
	0x46, 0x00, 0x02, 0x45, 0x6e, 0x5e, 0x45, 0x00, 0x02, 0x43, 0x6e, 0x46,
	0x43, 0x00, 0x02, 0x4c, 0x6e, 0x46, 0x4c, 0x00, 0x02, 0x4f, 0x6e, 0x2e,
	0x4f, 0x00, 0x02, 0x51, 0x6e, 0x5e, 0x51, 0x00, 0x02, 0x4d, 0x6e, 0x2e,
	0x4d, 0x00, 0x02, 0x4f, 0x6e, 0x2e, 0x4f, 0x00, 0x32, 0x4c, 0x6e, 0x5e,
	0x4c, 0x00, 0x02, 0x48, 0x6e, 0x2e, 0x48, 0x00, 0x02, 0x4a, 0x6e, 0x2e,
	0x4a, 0x00, 0x02, 0x47, 0x6e, 0x81, 0x0e, 0x47, 0x00, 0x02, 0x4c, 0x6e,
	0x2e, 0x4c, 0x00, 0x02, 0x48, 0x6e, 0x5e, 0x48, 0x00, 0x02, 0x43, 0x6e,
	0x2e, 0x43, 0x00, 0x62, 0x44, 0x6e, 0x5e, 0x44, 0x00, 0x02, 0x45, 0x6e,
	0x2e, 0x45, 0x00, 0x02, 0x4d, 0x6e, 0x5e, 0x4d, 0x00, 0x02, 0x4d, 0x6e,
	0x2e, 0x4d, 0x00, 0x02, 0x45, 0x6e, 0x81, 0x20, 0x45, 0x00, 0x20, 0x47,
	0x6e, 0x46, 0x47, 0x00, 0x02, 0x51, 0x6e, 0x46, 0x51, 0x00, 0x02, 0x51,
	0x6e, 0x2e, 0x51, 0x00, 0x02, 0x51, 0x6e, 0x46, 0x51, 0x00, 0x02, 0x4f,
	0x6e, 0x46, 0x4f, 0x00, 0x02, 0x4d, 0x6e, 0x2e, 0x4d, 0x00, 0x02, 0x4c,
	0x6e, 0x2e, 0x4c, 0x00, 0x02, 0x48, 0x6e, 0x5e, 0x48, 0x00, 0x02, 0x45,
	0x6e, 0x2e, 0x45, 0x00, 0x02, 0x43, 0x6e, 0x81, 0x20, 0x43, 0x00, 0x20,
	0x4c, 0x6e, 0x2e, 0x4c, 0x00, 0x02, 0x48, 0x6e, 0x5e, 0x48, 0x00, 0x02,
	0x43, 0x6e, 0x2e, 0x43, 0x00, 0x62, 0x44, 0x6e, 0x5e, 0x44, 0x00, 0x02,
	0x45, 0x6e, 0x2e, 0x45, 0x00, 0x02, 0x4d, 0x6e, 0x5e, 0x4d, 0x00, 0x02,
	0x4d, 0x6e, 0x2e, 0x4d, 0x00, 0x02, 0x45, 0x6e, 0x81, 0x20, 0x45, 0x00,
	0x20, 0x47, 0x6e, 0x2e, 0x47, 0x00, 0x02, 0x4d, 0x6e, 0x5e, 0x4d, 0x00,
	0x02, 0x4d, 0x6e, 0x2e, 0x4d, 0x00, 0x02, 0x4d, 0x6e, 0x46, 0x4d, 0x00,
	0x02, 0x4c, 0x6e, 0x46, 0x4c, 0x00, 0x02, 0x4a, 0x6e, 0x2e, 0x4a, 0x00,
	0x02, 0x48, 0x6e, 0x81, 0x20, 0x48, 0x00, 0x81, 0x60, 0x4c, 0x6e, 0x2e,
	0x4c, 0x00, 0x02, 0x48, 0x6e, 0x5e, 0x48, 0x00, 0x02, 0x43, 0x6e, 0x2e,
	0x43, 0x00, 0x62, 0x44, 0x6e, 0x5e, 0x44, 0x00, 0x02, 0x45, 0x6e, 0x2e,
	0x45, 0x00, 0x02, 0x4d, 0x6e, 0x5e, 0x4d, 0x00, 0x02, 0x4d, 0x6e, 0x2e,
	0x4d, 0x00, 0x02, 0x45, 0x6e, 0x81, 0x20, 0x45, 0x00, 0x20, 0x47, 0x6e,
	0x46, 0x47, 0x00, 0x02, 0x51, 0x6e, 0x46, 0x51, 0x00, 0x02, 0x51, 0x6e,
	0x2e, 0x51, 0x00, 0x02, 0x51, 0x6e, 0x46, 0x51, 0x00, 0x02, 0x4f, 0x6e,
	0x46, 0x4f, 0x00, 0x02, 0x4d, 0x6e, 0x2e, 0x4d, 0x00, 0x02, 0x4c, 0x6e,
	0x2e, 0x4c, 0x00, 0x02, 0x48, 0x6e, 0x5e, 0x48, 0x00, 0x02, 0x45, 0x6e,
	0x2e, 0x45, 0x00, 0x02, 0x43, 0x6e, 0x81, 0x20, 0x43, 0x00, 0x20, 0x4c,
	0x6e, 0x2e, 0x4c, 0x00, 0x02, 0x48, 0x6e, 0x5e, 0x48, 0x00, 0x02, 0x43,
	0x6e, 0x2e, 0x43, 0x00, 0x62, 0x44, 0x6e, 0x5e, 0x44, 0x00, 0x02, 0x45,
	0x6e, 0x2e, 0x45, 0x00, 0x02, 0x4d, 0x6e, 0x5e, 0x4d, 0x00, 0x02, 0x4d,
	0x6e, 0x2e, 0x4d, 0x00, 0x02, 0x45, 0x6e, 0x81, 0x20, 0x45, 0x00, 0x20,
	0x47, 0x6e, 0x2e, 0x47, 0x00, 0x02, 0x4d, 0x6e, 0x5e, 0x4d, 0x00, 0x02,
	0x4d, 0x6e, 0x2e, 0x4d, 0x00, 0x02, 0x4d, 0x6e, 0x46, 0x4d, 0x00, 0x02,
	0x4c, 0x6e, 0x46, 0x4c, 0x00, 0x02, 0x4a, 0x6e, 0x2e, 0x4a, 0x00, 0x02,
	0x48, 0x6e, 0x81, 0x20, 0x48, 0x00, 0x81, 0x60, 0x48, 0x6e, 0x2e, 0x48,
	0x00, 0x02, 0x48, 0x6e, 0x5e, 0x48, 0x00, 0x02, 0x48, 0x6e, 0x2e, 0x48,
	0x00, 0x32, 0x48, 0x6e, 0x2e, 0x48, 0x00, 0x02, 0x4a, 0x6e, 0x5e, 0x4a,
	0x00, 0x02, 0x4c, 0x6e, 0x2e, 0x4c, 0x00, 0x02, 0x48, 0x6e, 0x5e, 0x48,
	0x00, 0x02, 0x45, 0x6e, 0x2e, 0x45, 0x00, 0x02, 0x43, 0x6e, 0x81, 0x20,
	0x43, 0x00, 0x20, 0x48, 0x6e, 0x2e, 0x48, 0x00, 0x02, 0x48, 0x6e, 0x5e,
	0x48, 0x00, 0x02, 0x48, 0x6e, 0x2e, 0x48, 0x00, 0x32, 0x48, 0x6e, 0x2e,
	0x48, 0x00, 0x02, 0x4a, 0x6e, 0x2e, 0x4a, 0x00, 0x02, 0x4c, 0x6e, 0x2e,
	0x4c, 0x00, 0x83, 0x02, 0x48, 0x6e, 0x2e, 0x48, 0x00, 0x02, 0x48, 0x6e,
	0x5e, 0x48, 0x00, 0x02, 0x48, 0x6e, 0x2e, 0x48, 0x00, 0x32, 0x48, 0x6e,
	0x2e, 0x48, 0x00, 0x02, 0x4a, 0x6e, 0x5e, 0x4a, 0x00, 0x02, 0x4c, 0x6e,
	0x2e, 0x4c, 0x00, 0x02, 0x48, 0x6e, 0x5e, 0x48, 0x00, 0x02, 0x45, 0x6e,
	0x2e, 0x45, 0x00, 0x02, 0x43, 0x6e, 0x81, 0x20, 0x43, 0x00, 0x20, 0x4c,
	0x6e, 0x2e, 0x4c, 0x00, 0x02, 0x4c, 0x6e, 0x5e, 0x4c, 0x00, 0x02, 0x4c,
	0x6e, 0x2e, 0x4c, 0x00, 0x32, 0x48, 0x6e, 0x2e, 0x48, 0x00, 0x02, 0x4c,
	0x6e, 0x5e, 0x4c, 0x00, 0x02, 0x4f, 0x6e, 0x81, 0x20, 0x4f, 0x00, 0x81,
	0x60, 0x4c, 0x6e, 0x2e, 0x4c, 0x00, 0x02, 0x48, 0x6e, 0x5e, 0x48, 0x00,
	0x02, 0x43, 0x6e, 0x2e, 0x43, 0x00, 0x62, 0x44, 0x6e, 0x5e, 0x44, 0x00,
	0x02, 0x45, 0x6e, 0x2e, 0x45, 0x00, 0x02, 0x4d, 0x6e, 0x5e, 0x4d, 0x00,
	0x02, 0x4d, 0x6e, 0x2e, 0x4d, 0x00, 0x02, 0x45, 0x6e, 0x81, 0x20, 0x45,
	0x00, 0x20, 0x47, 0x6e, 0x46, 0x47, 0x00, 0x02, 0x51, 0x6e, 0x46, 0x51,
	0x00, 0x02, 0x51, 0x6e, 0x2e, 0x51, 0x00, 0x02, 0x51, 0x6e, 0x46, 0x51,
	0x00, 0x02, 0x4f, 0x6e, 0x46, 0x4f, 0x00, 0x02, 0x4d, 0x6e, 0x2e, 0x4d,
	0x00, 0x02, 0x4c, 0x6e, 0x2e, 0x4c, 0x00, 0x02, 0x48, 0x6e, 0x5e, 0x48,
	0x00, 0x02, 0x45, 0x6e, 0x2e, 0x45, 0x00, 0x02, 0x43, 0x6e, 0x81, 0x20,
	0x43, 0x00, 0x20, 0x4c, 0x6e, 0x2e, 0x4c, 0x00, 0x02, 0x48, 0x6e, 0x5e,
	0x48, 0x00, 0x02, 0x43, 0x6e, 0x2e, 0x43, 0x00, 0x62, 0x44, 0x6e, 0x5e,
	0x44, 0x00, 0x02, 0x45, 0x6e, 0x2e, 0x45, 0x00, 0x02, 0x4d, 0x6e, 0x5e,
	0x4d, 0x00, 0x02, 0x4d, 0x6e, 0x2e, 0x4d, 0x00, 0x02, 0x45, 0x6e, 0x81,
	0x20, 0x45, 0x00, 0x20, 0x47, 0x6e, 0x2e, 0x47, 0x00, 0x02, 0x4d, 0x6e,
	0x5e, 0x4d, 0x00, 0x02, 0x4d, 0x6e, 0x2e, 0x4d, 0x00, 0x02, 0x4d, 0x6e,
	0x46, 0x4d, 0x00, 0x02, 0x4c, 0x6e, 0x46, 0x4c, 0x00, 0x02, 0x4a, 0x6e,
	0x2e, 0x4a, 0x00, 0x02, 0x48, 0x6e, 0x81, 0x20, 0x48, 0x00, 0x81, 0x60,
	0x48, 0x6e, 0x81, 0x0e, 0x48, 0x00, 0x02, 0x43, 0x6e, 0x2e, 0x43, 0x00,
	0x62, 0x40, 0x6e, 0x5e, 0x40, 0x00, 0x32, 0x45, 0x6e, 0x5e, 0x45, 0x00,
	0x02, 0x47, 0x6e, 0x2e, 0x47, 0x00, 0x32, 0x46, 0x6e, 0x2e, 0x46, 0x00,
	0x02, 0x45, 0x6e, 0x5e, 0x45, 0x00, 0x02, 0x43, 0x6e, 0x46, 0x43, 0x00,
	0x02, 0x4c, 0x6e, 0x46, 0x4c, 0x00, 0x02, 0x4f, 0x6e, 0x2e, 0x4f, 0x00,
	0x02, 0x51, 0x6e, 0x5e, 0x51, 0x00, 0x02, 0x4d, 0x6e, 0x2e, 0x4d, 0x00,
	0x02, 0x4f, 0x6e, 0x2e, 0x4f, 0x00, 0x32, 0x4c, 0x6e, 0x5e, 0x4c, 0x00,
	0x02, 0x48, 0x6e, 0x2e, 0x48, 0x00, 0x02, 0x4a, 0x6e, 0x2e, 0x4a, 0x00,
	0x02, 0x47, 0x6e, 0x81, 0x0e, 0x47, 0x00, 0x02, 0x48, 0x6e, 0x81, 0x0e,
	0x48, 0x00, 0x02, 0x43, 0x6e, 0x2e, 0x43, 0x00, 0x62, 0x40, 0x6e, 0x5e,
	0x40, 0x00, 0x32, 0x45, 0x6e, 0x5e, 0x45, 0x00, 0x02, 0x47, 0x6e, 0x2e,
	0x47, 0x00, 0x32, 0x46, 0x6e, 0x2e, 0x46, 0x00, 0x02, 0x45, 0x6e, 0x5e,
	0x45, 0x00, 0x00, 0xff, 0x2f, 0x00, 0x4d, 0x54, 0x72, 0x6b, 0x00, 0x00,
	0x08, 0x23, 0x00, 0xff, 0x03, 0x06, 0x53, 0x74, 0x61, 0x66, 0x66, 0x32,
	0x00, 0xc1, 0x50, 0x00, 0xb1, 0x07, 0x7f, 0x00, 0x0a, 0x40, 0x00, 0xc1,
	0x01, 0x00, 0x91, 0x42, 0x6e, 0x2e, 0x42, 0x00, 0x02, 0x42, 0x6e, 0x5e,
	0x42, 0x00, 0x02, 0x42, 0x6e, 0x2e, 0x42, 0x00, 0x32, 0x42, 0x6e, 0x2e,
	0x42, 0x00, 0x02, 0x42, 0x6e, 0x5e, 0x42, 0x00, 0x02, 0x47, 0x6e, 0x81,
	0x20, 0x47, 0x00, 0x20, 0x43, 0x6e, 0x81, 0x20, 0x43, 0x00, 0x20, 0x40,
	0x6e, 0x81, 0x0e, 0x40, 0x00, 0x02, 0x3c, 0x6e, 0x2e, 0x3c, 0x00, 0x62,
	0x37, 0x6e, 0x5e, 0x37, 0x00, 0x32, 0x3c, 0x6e, 0x5e, 0x3c, 0x00, 0x02,
	0x3e, 0x6e, 0x2e, 0x3e, 0x00, 0x32, 0x3d, 0x6e, 0x2e, 0x3d, 0x00, 0x02,
	0x3c, 0x6e, 0x5e, 0x3c, 0x00, 0x02, 0x3c, 0x6e, 0x46, 0x3c, 0x00, 0x02,
	0x43, 0x6e, 0x46, 0x43, 0x00, 0x02, 0x47, 0x6e, 0x2e, 0x47, 0x00, 0x02,
	0x48, 0x6e, 0x5e, 0x48, 0x00, 0x02, 0x45, 0x6e, 0x2e, 0x45, 0x00, 0x02,
	0x47, 0x6e, 0x2e, 0x47, 0x00, 0x32, 0x45, 0x6e, 0x5e, 0x45, 0x00, 0x02,
	0x40, 0x6e, 0x2e, 0x40, 0x00, 0x02, 0x41, 0x6e, 0x2e, 0x41, 0x00, 0x02,
	0x3e, 0x6e, 0x81, 0x0e, 0x3e, 0x00, 0x02, 0x40, 0x6e, 0x81, 0x0e, 0x40,
	0x00, 0x02, 0x3c, 0x6e, 0x2e, 0x3c, 0x00, 0x62, 0x37, 0x6e, 0x5e, 0x37,
	0x00, 0x32, 0x3c, 0x6e, 0x5e, 0x3c, 0x00, 0x02, 0x3e, 0x6e, 0x2e, 0x3e,
	0x00, 0x32, 0x3d, 0x6e, 0x2e, 0x3d, 0x00, 0x02, 0x3c, 0x6e, 0x5e, 0x3c,
	0x00, 0x02, 0x3c, 0x6e, 0x46, 0x3c, 0x00, 0x02, 0x43, 0x6e, 0x46, 0x43,
	0x00, 0x02, 0x47, 0x6e, 0x2e, 0x47, 0x00, 0x02, 0x48, 0x6e, 0x5e, 0x48,
	0x00, 0x02, 0x45, 0x6e, 0x2e, 0x45, 0x00, 0x02, 0x47, 0x6e, 0x2e, 0x47,
	0x00, 0x32, 0x45, 0x6e, 0x5e, 0x45, 0x00, 0x02, 0x40, 0x6e, 0x2e, 0x40,
	0x00, 0x02, 0x41, 0x6e, 0x2e, 0x41, 0x00, 0x02, 0x3e, 0x6e, 0x81, 0x0e,
	0x3e, 0x00, 0x62, 0x4c, 0x6e, 0x2e, 0x4c, 0x00, 0x02, 0x4b, 0x6e, 0x2e,
	0x4b, 0x00, 0x02, 0x4a, 0x6e, 0x2e, 0x4a, 0x00, 0x02, 0x47, 0x6e, 0x5e,
	0x47, 0x00, 0x02, 0x48, 0x6e, 0x2e, 0x48, 0x00, 0x32, 0x40, 0x6e, 0x2e,
	0x40, 0x00, 0x02, 0x41, 0x6e, 0x2e, 0x41, 0x00, 0x02, 0x43, 0x6e, 0x2e,
	0x43, 0x00, 0x32, 0x3c, 0x6e, 0x2e, 0x3c, 0x00, 0x02, 0x40, 0x6e, 0x2e,
	0x40, 0x00, 0x02, 0x41, 0x6e, 0x2e, 0x41, 0x00, 0x62, 0x4c, 0x6e, 0x2e,
	0x4c, 0x00, 0x02, 0x4b, 0x6e, 0x2e, 0x4b, 0x00, 0x02, 0x4a, 0x6e, 0x2e,
	0x4a, 0x00, 0x02, 0x47, 0x6e, 0x5e, 0x47, 0x00, 0x02, 0x48, 0x6e, 0x2e,
	0x48, 0x00, 0x32, 0x4d, 0x6e, 0x5e, 0x4d, 0x00, 0x02, 0x4d, 0x6e, 0x2e,
	0x4d, 0x00, 0x02, 0x4d, 0x6e, 0x81, 0x20, 0x4d, 0x00, 0x81, 0x00, 0x4c,
	0x6e, 0x2e, 0x4c, 0x00, 0x02, 0x4b, 0x6e, 0x2e, 0x4b, 0x00, 0x02, 0x4a,
	0x6e, 0x2e, 0x4a, 0x00, 0x02, 0x47, 0x6e, 0x5e, 0x47, 0x00, 0x02, 0x48,
	0x6e, 0x2e, 0x48, 0x00, 0x32, 0x40, 0x6e, 0x2e, 0x40, 0x00, 0x02, 0x41,
	0x6e, 0x2e, 0x41, 0x00, 0x02, 0x43, 0x6e, 0x2e, 0x43, 0x00, 0x32, 0x3c,
	0x6e, 0x2e, 0x3c, 0x00, 0x02, 0x40, 0x6e, 0x2e, 0x40, 0x00, 0x02, 0x41,
	0x6e, 0x2e, 0x41, 0x00, 0x62, 0x44, 0x6e, 0x5e, 0x44, 0x00, 0x32, 0x41,
	0x6e, 0x81, 0x0e, 0x41, 0x00, 0x02, 0x40, 0x6e, 0x81, 0x20, 0x40, 0x00,
	0x82, 0x40, 0x4c, 0x6e, 0x2e, 0x4c, 0x00, 0x02, 0x4b, 0x6e, 0x2e, 0x4b,
	0x00, 0x02, 0x4a, 0x6e, 0x2e, 0x4a, 0x00, 0x02, 0x47, 0x6e, 0x5e, 0x47,
	0x00, 0x02, 0x48, 0x6e, 0x2e, 0x48, 0x00, 0x32, 0x40, 0x6e, 0x2e, 0x40,
	0x00, 0x02, 0x41, 0x6e, 0x2e, 0x41, 0x00, 0x02, 0x43, 0x6e, 0x2e, 0x43,
	0x00, 0x32, 0x3c, 0x6e, 0x2e, 0x3c, 0x00, 0x02, 0x40, 0x6e, 0x2e, 0x40,
	0x00, 0x02, 0x41, 0x6e, 0x2e, 0x41, 0x00, 0x62, 0x4c, 0x6e, 0x2e, 0x4c,
	0x00, 0x02, 0x4b, 0x6e, 0x2e, 0x4b, 0x00, 0x02, 0x4a, 0x6e, 0x2e, 0x4a,
	0x00, 0x02, 0x47, 0x6e, 0x5e, 0x47, 0x00, 0x02, 0x48, 0x6e, 0x2e, 0x48,
	0x00, 0x32, 0x4d, 0x6e, 0x5e, 0x4d, 0x00, 0x02, 0x4d, 0x6e, 0x2e, 0x4d,
	0x00, 0x02, 0x4d, 0x6e, 0x81, 0x20, 0x4d, 0x00, 0x81, 0x00, 0x4c, 0x6e,
	0x2e, 0x4c, 0x00, 0x02, 0x4b, 0x6e, 0x2e, 0x4b, 0x00, 0x02, 0x4a, 0x6e,
	0x2e, 0x4a, 0x00, 0x02, 0x47, 0x6e, 0x5e, 0x47, 0x00, 0x02, 0x48, 0x6e,
	0x2e, 0x48, 0x00, 0x32, 0x40, 0x6e, 0x2e, 0x40, 0x00, 0x02, 0x41, 0x6e,
	0x2e, 0x41, 0x00, 0x02, 0x43, 0x6e, 0x2e, 0x43, 0x00, 0x32, 0x3c, 0x6e,
	0x2e, 0x3c, 0x00, 0x02, 0x40, 0x6e, 0x2e, 0x40, 0x00, 0x02, 0x41, 0x6e,
	0x2e, 0x41, 0x00, 0x62, 0x44, 0x6e, 0x5e, 0x44, 0x00, 0x32, 0x41, 0x6e,
	0x81, 0x0e, 0x41, 0x00, 0x02, 0x40, 0x6e, 0x81, 0x20, 0x40, 0x00, 0x81,
	0x60, 0x44, 0x6e, 0x2e, 0x44, 0x00, 0x02, 0x44, 0x6e, 0x5e, 0x44, 0x00,
	0x02, 0x44, 0x6e, 0x2e, 0x44, 0x00, 0x32, 0x44, 0x6e, 0x2e, 0x44, 0x00,
	0x02, 0x46, 0x6e, 0x5e, 0x46, 0x00, 0x02, 0x43, 0x6e, 0x2e, 0x43, 0x00,
	0x02, 0x40, 0x6e, 0x5e, 0x40, 0x00, 0x02, 0x40, 0x6e, 0x2e, 0x40, 0x00,
	0x02, 0x3c, 0x6e, 0x81, 0x20, 0x3c, 0x00, 0x20, 0x44, 0x6e, 0x2e, 0x44,
	0x00, 0x02, 0x44, 0x6e, 0x5e, 0x44, 0x00, 0x02, 0x44, 0x6e, 0x2e, 0x44,
	0x00, 0x32, 0x44, 0x6e, 0x2e, 0x44, 0x00, 0x02, 0x46, 0x6e, 0x2e, 0x46,
	0x00, 0x02, 0x43, 0x6e, 0x2e, 0x43, 0x00, 0x83, 0x02, 0x44, 0x6e, 0x2e,
	0x44, 0x00, 0x02, 0x44, 0x6e, 0x5e, 0x44, 0x00, 0x02, 0x44, 0x6e, 0x2e,
	0x44, 0x00, 0x32, 0x44, 0x6e, 0x2e, 0x44, 0x00, 0x02, 0x46, 0x6e, 0x5e,
	0x46, 0x00, 0x02, 0x43, 0x6e, 0x2e, 0x43, 0x00, 0x02, 0x40, 0x6e, 0x5e,
	0x40, 0x00, 0x02, 0x40, 0x6e, 0x2e, 0x40, 0x00, 0x02, 0x3c, 0x6e, 0x81,
	0x20, 0x3c, 0x00, 0x20, 0x42, 0x6e, 0x2e, 0x42, 0x00, 0x02, 0x42, 0x6e,
	0x5e, 0x42, 0x00, 0x02, 0x42, 0x6e, 0x2e, 0x42, 0x00, 0x32, 0x42, 0x6e,
	0x2e, 0x42, 0x00, 0x02, 0x42, 0x6e, 0x5e, 0x42, 0x00, 0x02, 0x47, 0x6e,
	0x81, 0x20, 0x47, 0x00, 0x20, 0x43, 0x6e, 0x81, 0x20, 0x43, 0x00, 0x20,
	0x40, 0x6e, 0x81, 0x0e, 0x40, 0x00, 0x02, 0x3c, 0x6e, 0x2e, 0x3c, 0x00,
	0x62, 0x37, 0x6e, 0x5e, 0x37, 0x00, 0x32, 0x3c, 0x6e, 0x5e, 0x3c, 0x00,
	0x02, 0x3e, 0x6e, 0x2e, 0x3e, 0x00, 0x32, 0x3d, 0x6e, 0x2e, 0x3d, 0x00,
	0x02, 0x3c, 0x6e, 0x5e, 0x3c, 0x00, 0x02, 0x3c, 0x6e, 0x46, 0x3c, 0x00,
	0x02, 0x43, 0x6e, 0x46, 0x43, 0x00, 0x02, 0x47, 0x6e, 0x2e, 0x47, 0x00,
	0x02, 0x48, 0x6e, 0x5e, 0x48, 0x00, 0x02, 0x45, 0x6e, 0x2e, 0x45, 0x00,
	0x02, 0x47, 0x6e, 0x2e, 0x47, 0x00, 0x32, 0x45, 0x6e, 0x5e, 0x45, 0x00,
	0x02, 0x40, 0x6e, 0x2e, 0x40, 0x00, 0x02, 0x41, 0x6e, 0x2e, 0x41, 0x00,
	0x02, 0x3e, 0x6e, 0x81, 0x0e, 0x3e, 0x00, 0x02, 0x40, 0x6e, 0x81, 0x0e,
	0x40, 0x00, 0x02, 0x3c, 0x6e, 0x2e, 0x3c, 0x00, 0x62, 0x37, 0x6e, 0x5e,
	0x37, 0x00, 0x32, 0x3c, 0x6e, 0x5e, 0x3c, 0x00, 0x02, 0x3e, 0x6e, 0x2e,
	0x3e, 0x00, 0x32, 0x3d, 0x6e, 0x2e, 0x3d, 0x00, 0x02, 0x3c, 0x6e, 0x5e,
	0x3c, 0x00, 0x02, 0x3c, 0x6e, 0x46, 0x3c, 0x00, 0x02, 0x43, 0x6e, 0x46,
	0x43, 0x00, 0x02, 0x47, 0x6e, 0x2e, 0x47, 0x00, 0x02, 0x48, 0x6e, 0x5e,
	0x48, 0x00, 0x02, 0x45, 0x6e, 0x2e, 0x45, 0x00, 0x02, 0x47, 0x6e, 0x2e,
	0x47, 0x00, 0x32, 0x45, 0x6e, 0x5e, 0x45, 0x00, 0x02, 0x40, 0x6e, 0x2e,
	0x40, 0x00, 0x02, 0x41, 0x6e, 0x2e, 0x41, 0x00, 0x02, 0x3e, 0x6e, 0x81,
	0x0e, 0x3e, 0x00, 0x02, 0x48, 0x6e, 0x2e, 0x48, 0x00, 0x02, 0x45, 0x6e,
	0x5e, 0x45, 0x00, 0x02, 0x40, 0x6e, 0x2e, 0x40, 0x00, 0x62, 0x40, 0x6e,
	0x5e, 0x40, 0x00, 0x02, 0x41, 0x6e, 0x2e, 0x41, 0x00, 0x02, 0x48, 0x6e,
	0x5e, 0x48, 0x00, 0x02, 0x48, 0x6e, 0x2e, 0x48, 0x00, 0x02, 0x41, 0x6e,
	0x81, 0x20, 0x41, 0x00, 0x20, 0x43, 0x6e, 0x46, 0x43, 0x00, 0x02, 0x4d,
	0x6e, 0x46, 0x4d, 0x00, 0x02, 0x4d, 0x6e, 0x2e, 0x4d, 0x00, 0x02, 0x4d,
	0x6e, 0x46, 0x4d, 0x00, 0x02, 0x4c, 0x6e, 0x46, 0x4c, 0x00, 0x02, 0x4a,
	0x6e, 0x2e, 0x4a, 0x00, 0x02, 0x48, 0x6e, 0x2e, 0x48, 0x00, 0x02, 0x45,
	0x6e, 0x5e, 0x45, 0x00, 0x02, 0x41, 0x6e, 0x2e, 0x41, 0x00, 0x02, 0x40,
	0x6e, 0x81, 0x20, 0x40, 0x00, 0x20, 0x48, 0x6e, 0x2e, 0x48, 0x00, 0x02,
	0x45, 0x6e, 0x5e, 0x45, 0x00, 0x02, 0x40, 0x6e, 0x2e, 0x40, 0x00, 0x62,
	0x40, 0x6e, 0x5e, 0x40, 0x00, 0x02, 0x41, 0x6e, 0x2e, 0x41, 0x00, 0x02,
	0x48, 0x6e, 0x5e, 0x48, 0x00, 0x02, 0x48, 0x6e, 0x2e, 0x48, 0x00, 0x02,
	0x41, 0x6e, 0x81, 0x20, 0x41, 0x00, 0x20, 0x43, 0x6e, 0x2e, 0x43, 0x00,
	0x02, 0x4a, 0x6e, 0x5e, 0x4a, 0x00, 0x02, 0x4a, 0x6e, 0x2e, 0x4a, 0x00,
	0x02, 0x4a, 0x6e, 0x46, 0x4a, 0x00, 0x02, 0x48, 0x6e, 0x46, 0x48, 0x00,
	0x02, 0x47, 0x6e, 0x2e, 0x47, 0x00, 0x02, 0x43, 0x6e, 0x2e, 0x43, 0x00,
	0x02, 0x40, 0x6e, 0x5e, 0x40, 0x00, 0x02, 0x40, 0x6e, 0x2e, 0x40, 0x00,
	0x02, 0x3c, 0x6e, 0x81, 0x20, 0x3c, 0x00, 0x20, 0x48, 0x6e, 0x2e, 0x48,
	0x00, 0x02, 0x45, 0x6e, 0x5e, 0x45, 0x00, 0x02, 0x40, 0x6e, 0x2e, 0x40,
	0x00, 0x62, 0x40, 0x6e, 0x5e, 0x40, 0x00, 0x02, 0x41, 0x6e, 0x2e, 0x41,
	0x00, 0x02, 0x48, 0x6e, 0x5e, 0x48, 0x00, 0x02, 0x48, 0x6e, 0x2e, 0x48,
	0x00, 0x02, 0x41, 0x6e, 0x81, 0x20, 0x41, 0x00, 0x20, 0x43, 0x6e, 0x46,
	0x43, 0x00, 0x02, 0x4d, 0x6e, 0x46, 0x4d, 0x00, 0x02, 0x4d, 0x6e, 0x2e,
	0x4d, 0x00, 0x02, 0x4d, 0x6e, 0x46, 0x4d, 0x00, 0x02, 0x4c, 0x6e, 0x46,
	0x4c, 0x00, 0x02, 0x4a, 0x6e, 0x2e, 0x4a, 0x00, 0x02, 0x48, 0x6e, 0x2e,
	0x48, 0x00, 0x02, 0x45, 0x6e, 0x5e, 0x45, 0x00, 0x02, 0x41, 0x6e, 0x2e,
	0x41, 0x00, 0x02, 0x40, 0x6e, 0x81, 0x20, 0x40, 0x00, 0x20, 0x48, 0x6e,
	0x2e, 0x48, 0x00, 0x02, 0x45, 0x6e, 0x5e, 0x45, 0x00, 0x02, 0x40, 0x6e,
	0x2e, 0x40, 0x00, 0x62, 0x40, 0x6e, 0x5e, 0x40, 0x00, 0x02, 0x41, 0x6e,
	0x2e, 0x41, 0x00, 0x02, 0x48, 0x6e, 0x5e, 0x48, 0x00, 0x02, 0x48, 0x6e,
	0x2e, 0x48, 0x00, 0x02, 0x41, 0x6e, 0x81, 0x20, 0x41, 0x00, 0x20, 0x43,
	0x6e, 0x2e, 0x43, 0x00, 0x02, 0x4a, 0x6e, 0x5e, 0x4a, 0x00, 0x02, 0x4a,
	0x6e, 0x2e, 0x4a, 0x00, 0x02, 0x4a, 0x6e, 0x46, 0x4a, 0x00, 0x02, 0x48,
	0x6e, 0x46, 0x48, 0x00, 0x02, 0x47, 0x6e, 0x2e, 0x47, 0x00, 0x02, 0x43,
	0x6e, 0x2e, 0x43, 0x00, 0x02, 0x40, 0x6e, 0x5e, 0x40, 0x00, 0x02, 0x40,
	0x6e, 0x2e, 0x40, 0x00, 0x02, 0x3c, 0x6e, 0x81, 0x20, 0x3c, 0x00, 0x20,
	0x44, 0x6e, 0x2e, 0x44, 0x00, 0x02, 0x44, 0x6e, 0x5e, 0x44, 0x00, 0x02,
	0x44, 0x6e, 0x2e, 0x44, 0x00, 0x32, 0x44, 0x6e, 0x2e, 0x44, 0x00, 0x02,
	0x46, 0x6e, 0x5e, 0x46, 0x00, 0x02, 0x43, 0x6e, 0x2e, 0x43, 0x00, 0x02,
	0x40, 0x6e, 0x5e, 0x40, 0x00, 0x02, 0x40, 0x6e, 0x2e, 0x40, 0x00, 0x02,
	0x3c, 0x6e, 0x81, 0x20, 0x3c, 0x00, 0x20, 0x44, 0x6e, 0x2e, 0x44, 0x00,
	0x02, 0x44, 0x6e, 0x5e, 0x44, 0x00, 0x02, 0x44, 0x6e, 0x2e, 0x44, 0x00,
	0x32, 0x44, 0x6e, 0x2e, 0x44, 0x00, 0x02, 0x46, 0x6e, 0x2e, 0x46, 0x00,
	0x02, 0x43, 0x6e, 0x2e, 0x43, 0x00, 0x83, 0x02, 0x44, 0x6e, 0x2e, 0x44,
	0x00, 0x02, 0x44, 0x6e, 0x5e, 0x44, 0x00, 0x02, 0x44, 0x6e, 0x2e, 0x44,
	0x00, 0x32, 0x44, 0x6e, 0x2e, 0x44, 0x00, 0x02, 0x46, 0x6e, 0x5e, 0x46,
	0x00, 0x02, 0x43, 0x6e, 0x2e, 0x43, 0x00, 0x02, 0x40, 0x6e, 0x5e, 0x40,
	0x00, 0x02, 0x40, 0x6e, 0x2e, 0x40, 0x00, 0x02, 0x3c, 0x6e, 0x81, 0x20,
	0x3c, 0x00, 0x20, 0x42, 0x6e, 0x2e, 0x42, 0x00, 0x02, 0x42, 0x6e, 0x5e,
	0x42, 0x00, 0x02, 0x42, 0x6e, 0x2e, 0x42, 0x00, 0x32, 0x42, 0x6e, 0x2e,
	0x42, 0x00, 0x02, 0x42, 0x6e, 0x5e, 0x42, 0x00, 0x02, 0x47, 0x6e, 0x81,
	0x20, 0x47, 0x00, 0x20, 0x43, 0x6e, 0x81, 0x20, 0x43, 0x00, 0x20, 0x48,
	0x6e, 0x2e, 0x48, 0x00, 0x02, 0x45, 0x6e, 0x5e, 0x45, 0x00, 0x02, 0x40,
	0x6e, 0x2e, 0x40, 0x00, 0x62, 0x40, 0x6e, 0x5e, 0x40, 0x00, 0x02, 0x41,
	0x6e, 0x2e, 0x41, 0x00, 0x02, 0x48, 0x6e, 0x5e, 0x48, 0x00, 0x02, 0x48,
	0x6e, 0x2e, 0x48, 0x00, 0x02, 0x41, 0x6e, 0x81, 0x20, 0x41, 0x00, 0x20,
	0x43, 0x6e, 0x46, 0x43, 0x00, 0x02, 0x4d, 0x6e, 0x46, 0x4d, 0x00, 0x02,
	0x4d, 0x6e, 0x2e, 0x4d, 0x00, 0x02, 0x4d, 0x6e, 0x46, 0x4d, 0x00, 0x02,
	0x4c, 0x6e, 0x46, 0x4c, 0x00, 0x02, 0x4a, 0x6e, 0x2e, 0x4a, 0x00, 0x02,
	0x48, 0x6e, 0x2e, 0x48, 0x00, 0x02, 0x45, 0x6e, 0x5e, 0x45, 0x00, 0x02,
	0x41, 0x6e, 0x2e, 0x41, 0x00, 0x02, 0x40, 0x6e, 0x81, 0x20, 0x40, 0x00,
	0x20, 0x48, 0x6e, 0x2e, 0x48, 0x00, 0x02, 0x45, 0x6e, 0x5e, 0x45, 0x00,
	0x02, 0x40, 0x6e, 0x2e, 0x40, 0x00, 0x62, 0x40, 0x6e, 0x5e, 0x40, 0x00,
	0x02, 0x41, 0x6e, 0x2e, 0x41, 0x00, 0x02, 0x48, 0x6e, 0x5e, 0x48, 0x00,
	0x02, 0x48, 0x6e, 0x2e, 0x48, 0x00, 0x02, 0x41, 0x6e, 0x81, 0x20, 0x41,
	0x00, 0x20, 0x43, 0x6e, 0x2e, 0x43, 0x00, 0x02, 0x4a, 0x6e, 0x5e, 0x4a,
	0x00, 0x02, 0x4a, 0x6e, 0x2e, 0x4a, 0x00, 0x02, 0x4a, 0x6e, 0x46, 0x4a,
	0x00, 0x02, 0x48, 0x6e, 0x46, 0x48, 0x00, 0x02, 0x47, 0x6e, 0x2e, 0x47,
	0x00, 0x02, 0x43, 0x6e, 0x2e, 0x43, 0x00, 0x02, 0x40, 0x6e, 0x5e, 0x40,
	0x00, 0x02, 0x40, 0x6e, 0x2e, 0x40, 0x00, 0x02, 0x3c, 0x6e, 0x81, 0x20,
	0x3c, 0x00, 0x20, 0x40, 0x6e, 0x81, 0x0e, 0x40, 0x00, 0x02, 0x3c, 0x6e,
	0x2e, 0x3c, 0x00, 0x62, 0x37, 0x6e, 0x5e, 0x37, 0x00, 0x32, 0x3c, 0x6e,
	0x5e, 0x3c, 0x00, 0x02, 0x3e, 0x6e, 0x2e, 0x3e, 0x00, 0x32, 0x3d, 0x6e,
	0x2e, 0x3d, 0x00, 0x02, 0x3c, 0x6e, 0x5e, 0x3c, 0x00, 0x02, 0x3c, 0x6e,
	0x46, 0x3c, 0x00, 0x02, 0x43, 0x6e, 0x46, 0x43, 0x00, 0x02, 0x47, 0x6e,
	0x2e, 0x47, 0x00, 0x02, 0x48, 0x6e, 0x5e, 0x48, 0x00, 0x02, 0x45, 0x6e,
	0x2e, 0x45, 0x00, 0x02, 0x47, 0x6e, 0x2e, 0x47, 0x00, 0x32, 0x45, 0x6e,
	0x5e, 0x45, 0x00, 0x02, 0x40, 0x6e, 0x2e, 0x40, 0x00, 0x02, 0x41, 0x6e,
	0x2e, 0x41, 0x00, 0x02, 0x3e, 0x6e, 0x81, 0x0e, 0x3e, 0x00, 0x02, 0x40,
	0x6e, 0x81, 0x0e, 0x40, 0x00, 0x02, 0x3c, 0x6e, 0x2e, 0x3c, 0x00, 0x62,
	0x37, 0x6e, 0x5e, 0x37, 0x00, 0x32, 0x3c, 0x6e, 0x5e, 0x3c, 0x00, 0x02,
	0x3e, 0x6e, 0x2e, 0x3e, 0x00, 0x32, 0x3d, 0x6e, 0x2e, 0x3d, 0x00, 0x02,
	0x3c, 0x6e, 0x5e, 0x3c, 0x00, 0x00, 0xff, 0x2f, 0x00, 0x4d, 0x54, 0x72,
	0x6b, 0x00, 0x00, 0x07, 0xbe, 0x00, 0xff, 0x03, 0x06, 0x53, 0x74, 0x61,
	0x66, 0x66, 0x33, 0x00, 0xc2, 0x27, 0x00, 0xb2, 0x07, 0x7f, 0x00, 0x0a,
	0x40, 0x00, 0xc2, 0x01, 0x00, 0x92, 0x32, 0x6e, 0x2e, 0x32, 0x00, 0x02,
	0x32, 0x6e, 0x5e, 0x32, 0x00, 0x02, 0x32, 0x6e, 0x2e, 0x32, 0x00, 0x32,
	0x32, 0x6e, 0x2e, 0x32, 0x00, 0x02, 0x32, 0x6e, 0x5e, 0x32, 0x00, 0x02,
	0x43, 0x6e, 0x81, 0x20, 0x43, 0x00, 0x20, 0x37, 0x6e, 0x81, 0x20, 0x37,
	0x00, 0x20, 0x37, 0x6e, 0x81, 0x0e, 0x37, 0x00, 0x02, 0x34, 0x6e, 0x2e,
	0x34, 0x00, 0x62, 0x30, 0x6e, 0x5e, 0x30, 0x00, 0x32, 0x35, 0x6e, 0x5e,
	0x35, 0x00, 0x02, 0x37, 0x6e, 0x2e, 0x37, 0x00, 0x32, 0x36, 0x6e, 0x2e,
	0x36, 0x00, 0x02, 0x35, 0x6e, 0x5e, 0x35, 0x00, 0x02, 0x34, 0x6e, 0x46,
	0x34, 0x00, 0x02, 0x3c, 0x6e, 0x46, 0x3c, 0x00, 0x02, 0x40, 0x6e, 0x2e,
	0x40, 0x00, 0x02, 0x41, 0x6e, 0x5e, 0x41, 0x00, 0x02, 0x3e, 0x6e, 0x2e,
	0x3e, 0x00, 0x02, 0x40, 0x6e, 0x2e, 0x40, 0x00, 0x32, 0x3c, 0x6e, 0x5e,
	0x3c, 0x00, 0x02, 0x39, 0x6e, 0x2e, 0x39, 0x00, 0x02, 0x3b, 0x6e, 0x2e,
	0x3b, 0x00, 0x02, 0x37, 0x6e, 0x81, 0x0e, 0x37, 0x00, 0x02, 0x37, 0x6e,
	0x81, 0x0e, 0x37, 0x00, 0x02, 0x34, 0x6e, 0x2e, 0x34, 0x00, 0x62, 0x30,
	0x6e, 0x5e, 0x30, 0x00, 0x32, 0x35, 0x6e, 0x5e, 0x35, 0x00, 0x02, 0x37,
	0x6e, 0x2e, 0x37, 0x00, 0x32, 0x36, 0x6e, 0x2e, 0x36, 0x00, 0x02, 0x35,
	0x6e, 0x5e, 0x35, 0x00, 0x02, 0x34, 0x6e, 0x46, 0x34, 0x00, 0x02, 0x3c,
	0x6e, 0x46, 0x3c, 0x00, 0x02, 0x40, 0x6e, 0x2e, 0x40, 0x00, 0x02, 0x41,
	0x6e, 0x5e, 0x41, 0x00, 0x02, 0x3e, 0x6e, 0x2e, 0x3e, 0x00, 0x02, 0x40,
	0x6e, 0x2e, 0x40, 0x00, 0x32, 0x3c, 0x6e, 0x5e, 0x3c, 0x00, 0x02, 0x39,
	0x6e, 0x2e, 0x39, 0x00, 0x02, 0x3b, 0x6e, 0x2e, 0x3b, 0x00, 0x02, 0x37,
	0x6e, 0x81, 0x0e, 0x37, 0x00, 0x02, 0x30, 0x6e, 0x81, 0x0e, 0x30, 0x00,
	0x02, 0x37, 0x6e, 0x2e, 0x37, 0x00, 0x62, 0x3c, 0x6e, 0x5e, 0x3c, 0x00,
	0x02, 0x35, 0x6e, 0x81, 0x0e, 0x35, 0x00, 0x02, 0x3c, 0x6e, 0x2e, 0x3c,
	0x00, 0x02, 0x3c, 0x6e, 0x2e, 0x3c, 0x00, 0x02, 0x3c, 0x6e, 0x2e, 0x3c,
	0x00, 0x02, 0x35, 0x6e, 0x5e, 0x35, 0x00, 0x02, 0x30, 0x6e, 0x81, 0x0e,
	0x30, 0x00, 0x02, 0x34, 0x6e, 0x2e, 0x34, 0x00, 0x62, 0x37, 0x6e, 0x2e,
	0x37, 0x00, 0x02, 0x3c, 0x6e, 0x2e, 0x3c, 0x00, 0x32, 0x4f, 0x6e, 0x5e,
	0x4f, 0x00, 0x02, 0x4f, 0x6e, 0x2e, 0x4f, 0x00, 0x02, 0x4f, 0x6e, 0x5e,
	0x4f, 0x00, 0x02, 0x37, 0x6e, 0x5e, 0x37, 0x00, 0x02, 0x30, 0x6e, 0x81,
	0x0e, 0x30, 0x00, 0x02, 0x37, 0x6e, 0x2e, 0x37, 0x00, 0x62, 0x3c, 0x6e,
	0x5e, 0x3c, 0x00, 0x02, 0x35, 0x6e, 0x81, 0x0e, 0x35, 0x00, 0x02, 0x3c,
	0x6e, 0x2e, 0x3c, 0x00, 0x02, 0x3c, 0x6e, 0x2e, 0x3c, 0x00, 0x02, 0x3c,
	0x6e, 0x2e, 0x3c, 0x00, 0x02, 0x35, 0x6e, 0x5e, 0x35, 0x00, 0x02, 0x30,
	0x6e, 0x5e, 0x30, 0x00, 0x02, 0x38, 0x6e, 0x5e, 0x38, 0x00, 0x32, 0x3a,
	0x6e, 0x81, 0x0e, 0x3a, 0x00, 0x02, 0x3c, 0x6e, 0x81, 0x0e, 0x3c, 0x00,
	0x02, 0x37, 0x6e, 0x2e, 0x37, 0x00, 0x02, 0x37, 0x6e, 0x5e, 0x37, 0x00,
	0x02, 0x30, 0x6e, 0x5e, 0x30, 0x00, 0x02, 0x30, 0x6e, 0x81, 0x0e, 0x30,
	0x00, 0x02, 0x37, 0x6e, 0x2e, 0x37, 0x00, 0x62, 0x3c, 0x6e, 0x5e, 0x3c,
	0x00, 0x02, 0x35, 0x6e, 0x81, 0x0e, 0x35, 0x00, 0x02, 0x3c, 0x6e, 0x2e,
	0x3c, 0x00, 0x02, 0x3c, 0x6e, 0x2e, 0x3c, 0x00, 0x02, 0x3c, 0x6e, 0x2e,
	0x3c, 0x00, 0x02, 0x35, 0x6e, 0x5e, 0x35, 0x00, 0x02, 0x30, 0x6e, 0x81,
	0x0e, 0x30, 0x00, 0x02, 0x34, 0x6e, 0x2e, 0x34, 0x00, 0x62, 0x37, 0x6e,
	0x2e, 0x37, 0x00, 0x02, 0x3c, 0x6e, 0x2e, 0x3c, 0x00, 0x32, 0x4f, 0x6e,
	0x5e, 0x4f, 0x00, 0x02, 0x4f, 0x6e, 0x2e, 0x4f, 0x00, 0x02, 0x4f, 0x6e,
	0x5e, 0x4f, 0x00, 0x02, 0x37, 0x6e, 0x5e, 0x37, 0x00, 0x02, 0x30, 0x6e,
	0x81, 0x0e, 0x30, 0x00, 0x02, 0x37, 0x6e, 0x2e, 0x37, 0x00, 0x62, 0x3c,
	0x6e, 0x5e, 0x3c, 0x00, 0x02, 0x35, 0x6e, 0x81, 0x0e, 0x35, 0x00, 0x02,
	0x3c, 0x6e, 0x2e, 0x3c, 0x00, 0x02, 0x3c, 0x6e, 0x2e, 0x3c, 0x00, 0x02,
	0x3c, 0x6e, 0x2e, 0x3c, 0x00, 0x02, 0x35, 0x6e, 0x5e, 0x35, 0x00, 0x02,
	0x30, 0x6e, 0x5e, 0x30, 0x00, 0x02, 0x38, 0x6e, 0x5e, 0x38, 0x00, 0x32,
	0x3a, 0x6e, 0x81, 0x0e, 0x3a, 0x00, 0x02, 0x3c, 0x6e, 0x81, 0x0e, 0x3c,
	0x00, 0x02, 0x37, 0x6e, 0x2e, 0x37, 0x00, 0x02, 0x37, 0x6e, 0x5e, 0x37,
	0x00, 0x02, 0x30, 0x6e, 0x5e, 0x30, 0x00, 0x02, 0x2c, 0x6e, 0x81, 0x0e,
	0x2c, 0x00, 0x02, 0x33, 0x6e, 0x2e, 0x33, 0x00, 0x62, 0x38, 0x6e, 0x5e,
	0x38, 0x00, 0x02, 0x37, 0x6e, 0x81, 0x0e, 0x37, 0x00, 0x02, 0x30, 0x6e,
	0x2e, 0x30, 0x00, 0x62, 0x2b, 0x6e, 0x5e, 0x2b, 0x00, 0x02, 0x2c, 0x6e,
	0x81, 0x0e, 0x2c, 0x00, 0x02, 0x33, 0x6e, 0x2e, 0x33, 0x00, 0x62, 0x38,
	0x6e, 0x5e, 0x38, 0x00, 0x02, 0x37, 0x6e, 0x81, 0x0e, 0x37, 0x00, 0x02,
	0x30, 0x6e, 0x2e, 0x30, 0x00, 0x62, 0x2b, 0x6e, 0x5e, 0x2b, 0x00, 0x02,
	0x2c, 0x6e, 0x81, 0x0e, 0x2c, 0x00, 0x02, 0x33, 0x6e, 0x2e, 0x33, 0x00,
	0x62, 0x38, 0x6e, 0x5e, 0x38, 0x00, 0x02, 0x37, 0x6e, 0x81, 0x0e, 0x37,
	0x00, 0x02, 0x30, 0x6e, 0x2e, 0x30, 0x00, 0x62, 0x2b, 0x6e, 0x5e, 0x2b,
	0x00, 0x02, 0x32, 0x6e, 0x2e, 0x32, 0x00, 0x02, 0x32, 0x6e, 0x5e, 0x32,
	0x00, 0x02, 0x32, 0x6e, 0x2e, 0x32, 0x00, 0x32, 0x32, 0x6e, 0x2e, 0x32,
	0x00, 0x02, 0x32, 0x6e, 0x5e, 0x32, 0x00, 0x02, 0x43, 0x6e, 0x81, 0x20,
	0x43, 0x00, 0x20, 0x37, 0x6e, 0x81, 0x20, 0x37, 0x00, 0x20, 0x37, 0x6e,
	0x81, 0x0e, 0x37, 0x00, 0x02, 0x34, 0x6e, 0x2e, 0x34, 0x00, 0x62, 0x30,
	0x6e, 0x5e, 0x30, 0x00, 0x32, 0x35, 0x6e, 0x5e, 0x35, 0x00, 0x02, 0x37,
	0x6e, 0x2e, 0x37, 0x00, 0x32, 0x36, 0x6e, 0x2e, 0x36, 0x00, 0x02, 0x35,
	0x6e, 0x5e, 0x35, 0x00, 0x02, 0x34, 0x6e, 0x46, 0x34, 0x00, 0x02, 0x3c,
	0x6e, 0x46, 0x3c, 0x00, 0x02, 0x40, 0x6e, 0x2e, 0x40, 0x00, 0x02, 0x41,
	0x6e, 0x5e, 0x41, 0x00, 0x02, 0x3e, 0x6e, 0x2e, 0x3e, 0x00, 0x02, 0x40,
	0x6e, 0x2e, 0x40, 0x00, 0x32, 0x3c, 0x6e, 0x5e, 0x3c, 0x00, 0x02, 0x39,
	0x6e, 0x2e, 0x39, 0x00, 0x02, 0x3b, 0x6e, 0x2e, 0x3b, 0x00, 0x02, 0x37,
	0x6e, 0x81, 0x0e, 0x37, 0x00, 0x02, 0x37, 0x6e, 0x81, 0x0e, 0x37, 0x00,
	0x02, 0x34, 0x6e, 0x2e, 0x34, 0x00, 0x62, 0x30, 0x6e, 0x5e, 0x30, 0x00,
	0x32, 0x35, 0x6e, 0x5e, 0x35, 0x00, 0x02, 0x37, 0x6e, 0x2e, 0x37, 0x00,
	0x32, 0x36, 0x6e, 0x2e, 0x36, 0x00, 0x02, 0x35, 0x6e, 0x5e, 0x35, 0x00,
	0x02, 0x34, 0x6e, 0x46, 0x34, 0x00, 0x02, 0x3c, 0x6e, 0x46, 0x3c, 0x00,
	0x02, 0x40, 0x6e, 0x2e, 0x40, 0x00, 0x02, 0x41, 0x6e, 0x5e, 0x41, 0x00,
	0x02, 0x3e, 0x6e, 0x2e, 0x3e, 0x00, 0x02, 0x40, 0x6e, 0x2e, 0x40, 0x00,
	0x32, 0x3c, 0x6e, 0x5e, 0x3c, 0x00, 0x02, 0x39, 0x6e, 0x2e, 0x39, 0x00,
	0x02, 0x3b, 0x6e, 0x2e, 0x3b, 0x00, 0x02, 0x37, 0x6e, 0x81, 0x0e, 0x37,
	0x00, 0x02, 0x30, 0x6e, 0x81, 0x0e, 0x30, 0x00, 0x02, 0x36, 0x6e, 0x2e,
	0x36, 0x00, 0x02, 0x37, 0x6e, 0x5e, 0x37, 0x00, 0x02, 0x3c, 0x6e, 0x5e,
	0x3c, 0x00, 0x02, 0x35, 0x6e, 0x5e, 0x35, 0x00, 0x02, 0x35, 0x6e, 0x5e,
	0x35, 0x00, 0x02, 0x3c, 0x6e, 0x2e, 0x3c, 0x00, 0x02, 0x3c, 0x6e, 0x2e,
	0x3c, 0x00, 0x02, 0x35, 0x6e, 0x5e, 0x35, 0x00, 0x02, 0x32, 0x6e, 0x81,
	0x0e, 0x32, 0x00, 0x02, 0x35, 0x6e, 0x2e, 0x35, 0x00, 0x02, 0x37, 0x6e,
	0x5e, 0x37, 0x00, 0x02, 0x3b, 0x6e, 0x5e, 0x3b, 0x00, 0x02, 0x37, 0x6e,
	0x5e, 0x37, 0x00, 0x02, 0x37, 0x6e, 0x5e, 0x37, 0x00, 0x02, 0x3c, 0x6e,
	0x2e, 0x3c, 0x00, 0x02, 0x3c, 0x6e, 0x2e, 0x3c, 0x00, 0x02, 0x37, 0x6e,
	0x5e, 0x37, 0x00, 0x02, 0x30, 0x6e, 0x81, 0x0e, 0x30, 0x00, 0x02, 0x36,
	0x6e, 0x2e, 0x36, 0x00, 0x02, 0x37, 0x6e, 0x5e, 0x37, 0x00, 0x02, 0x3c,
	0x6e, 0x5e, 0x3c, 0x00, 0x02, 0x35, 0x6e, 0x5e, 0x35, 0x00, 0x02, 0x35,
	0x6e, 0x5e, 0x35, 0x00, 0x02, 0x3c, 0x6e, 0x2e, 0x3c, 0x00, 0x02, 0x3c,
	0x6e, 0x2e, 0x3c, 0x00, 0x02, 0x35, 0x6e, 0x5e, 0x35, 0x00, 0x02, 0x37,
	0x6e, 0x81, 0x0e, 0x37, 0x00, 0x02, 0x37, 0x6e, 0x2e, 0x37, 0x00, 0x02,
	0x37, 0x6e, 0x46, 0x37, 0x00, 0x02, 0x39, 0x6e, 0x46, 0x39, 0x00, 0x02,
	0x3b, 0x6e, 0x2e, 0x3b, 0x00, 0x02, 0x3c, 0x6e, 0x5e, 0x3c, 0x00, 0x02,
	0x37, 0x6e, 0x5e, 0x37, 0x00, 0x02, 0x30, 0x6e, 0x81, 0x20, 0x30, 0x00,
	0x20, 0x30, 0x6e, 0x81, 0x0e, 0x30, 0x00, 0x02, 0x36, 0x6e, 0x2e, 0x36,
	0x00, 0x02, 0x37, 0x6e, 0x5e, 0x37, 0x00, 0x02, 0x3c, 0x6e, 0x5e, 0x3c,
	0x00, 0x02, 0x35, 0x6e, 0x5e, 0x35, 0x00, 0x02, 0x35, 0x6e, 0x5e, 0x35,
	0x00, 0x02, 0x3c, 0x6e, 0x2e, 0x3c, 0x00, 0x02, 0x3c, 0x6e, 0x2e, 0x3c,
	0x00, 0x02, 0x35, 0x6e, 0x5e, 0x35, 0x00, 0x02, 0x32, 0x6e, 0x81, 0x0e,
	0x32, 0x00, 0x02, 0x35, 0x6e, 0x2e, 0x35, 0x00, 0x02, 0x37, 0x6e, 0x5e,
	0x37, 0x00, 0x02, 0x3b, 0x6e, 0x5e, 0x3b, 0x00, 0x02, 0x37, 0x6e, 0x5e,
	0x37, 0x00, 0x02, 0x37, 0x6e, 0x5e, 0x37, 0x00, 0x02, 0x3c, 0x6e, 0x2e,
	0x3c, 0x00, 0x02, 0x3c, 0x6e, 0x2e, 0x3c, 0x00, 0x02, 0x37, 0x6e, 0x5e,
	0x37, 0x00, 0x02, 0x30, 0x6e, 0x81, 0x0e, 0x30, 0x00, 0x02, 0x36, 0x6e,
	0x2e, 0x36, 0x00, 0x02, 0x37, 0x6e, 0x5e, 0x37, 0x00, 0x02, 0x3c, 0x6e,
	0x5e, 0x3c, 0x00, 0x02, 0x35, 0x6e, 0x5e, 0x35, 0x00, 0x02, 0x35, 0x6e,
	0x5e, 0x35, 0x00, 0x02, 0x3c, 0x6e, 0x2e, 0x3c, 0x00, 0x02, 0x3c, 0x6e,
	0x2e, 0x3c, 0x00, 0x02, 0x35, 0x6e, 0x5e, 0x35, 0x00, 0x02, 0x37, 0x6e,
	0x81, 0x0e, 0x37, 0x00, 0x02, 0x37, 0x6e, 0x2e, 0x37, 0x00, 0x02, 0x37,
	0x6e, 0x46, 0x37, 0x00, 0x02, 0x39, 0x6e, 0x46, 0x39, 0x00, 0x02, 0x3b,
	0x6e, 0x2e, 0x3b, 0x00, 0x02, 0x3c, 0x6e, 0x5e, 0x3c, 0x00, 0x02, 0x37,
	0x6e, 0x5e, 0x37, 0x00, 0x02, 0x30, 0x6e, 0x81, 0x20, 0x30, 0x00, 0x20,
	0x2c, 0x6e, 0x81, 0x0e, 0x2c, 0x00, 0x02, 0x33, 0x6e, 0x2e, 0x33, 0x00,
	0x62, 0x38, 0x6e, 0x5e, 0x38, 0x00, 0x02, 0x37, 0x6e, 0x81, 0x0e, 0x37,
	0x00, 0x02, 0x30, 0x6e, 0x2e, 0x30, 0x00, 0x62, 0x2b, 0x6e, 0x5e, 0x2b,
	0x00, 0x02, 0x2c, 0x6e, 0x81, 0x0e, 0x2c, 0x00, 0x02, 0x33, 0x6e, 0x2e,
	0x33, 0x00, 0x62, 0x38, 0x6e, 0x5e, 0x38, 0x00, 0x02, 0x37, 0x6e, 0x81,
	0x0e, 0x37, 0x00, 0x02, 0x30, 0x6e, 0x2e, 0x30, 0x00, 0x62, 0x2b, 0x6e,
	0x5e, 0x2b, 0x00, 0x02, 0x2c, 0x6e, 0x81, 0x0e, 0x2c, 0x00, 0x02, 0x33,
	0x6e, 0x2e, 0x33, 0x00, 0x62, 0x38, 0x6e, 0x5e, 0x38, 0x00, 0x02, 0x37,
	0x6e, 0x81, 0x0e, 0x37, 0x00, 0x02, 0x30, 0x6e, 0x2e, 0x30, 0x00, 0x62,
	0x2b, 0x6e, 0x5e, 0x2b, 0x00, 0x02, 0x32, 0x6e, 0x2e, 0x32, 0x00, 0x02,
	0x32, 0x6e, 0x5e, 0x32, 0x00, 0x02, 0x32, 0x6e, 0x2e, 0x32, 0x00, 0x32,
	0x32, 0x6e, 0x2e, 0x32, 0x00, 0x02, 0x32, 0x6e, 0x5e, 0x32, 0x00, 0x02,
	0x43, 0x6e, 0x81, 0x20, 0x43, 0x00, 0x20, 0x37, 0x6e, 0x81, 0x20, 0x37,
	0x00, 0x20, 0x30, 0x6e, 0x81, 0x0e, 0x30, 0x00, 0x02, 0x36, 0x6e, 0x2e,
	0x36, 0x00, 0x02, 0x37, 0x6e, 0x5e, 0x37, 0x00, 0x02, 0x3c, 0x6e, 0x5e,
	0x3c, 0x00, 0x02, 0x35, 0x6e, 0x5e, 0x35, 0x00, 0x02, 0x35, 0x6e, 0x5e,
	0x35, 0x00, 0x02, 0x3c, 0x6e, 0x2e, 0x3c, 0x00, 0x02, 0x3c, 0x6e, 0x2e,
	0x3c, 0x00, 0x02, 0x35, 0x6e, 0x5e, 0x35, 0x00, 0x02, 0x32, 0x6e, 0x81,
	0x0e, 0x32, 0x00, 0x02, 0x35, 0x6e, 0x2e, 0x35, 0x00, 0x02, 0x37, 0x6e,
	0x5e, 0x37, 0x00, 0x02, 0x3b, 0x6e, 0x5e, 0x3b, 0x00, 0x02, 0x37, 0x6e,
	0x5e, 0x37, 0x00, 0x02, 0x37, 0x6e, 0x5e, 0x37, 0x00, 0x02, 0x3c, 0x6e,
	0x2e, 0x3c, 0x00, 0x02, 0x3c, 0x6e, 0x2e, 0x3c, 0x00, 0x02, 0x37, 0x6e,
	0x5e, 0x37, 0x00, 0x02, 0x30, 0x6e, 0x81, 0x0e, 0x30, 0x00, 0x02, 0x36,
	0x6e, 0x2e, 0x36, 0x00, 0x02, 0x37, 0x6e, 0x5e, 0x37, 0x00, 0x02, 0x3c,
	0x6e, 0x5e, 0x3c, 0x00, 0x02, 0x35, 0x6e, 0x5e, 0x35, 0x00, 0x02, 0x35,
	0x6e, 0x5e, 0x35, 0x00, 0x02, 0x3c, 0x6e, 0x2e, 0x3c, 0x00, 0x02, 0x3c,
	0x6e, 0x2e, 0x3c, 0x00, 0x02, 0x35, 0x6e, 0x5e, 0x35, 0x00, 0x02, 0x37,
	0x6e, 0x81, 0x0e, 0x37, 0x00, 0x02, 0x37, 0x6e, 0x2e, 0x37, 0x00, 0x02,
	0x37, 0x6e, 0x46, 0x37, 0x00, 0x02, 0x39, 0x6e, 0x46, 0x39, 0x00, 0x02,
	0x3b, 0x6e, 0x2e, 0x3b, 0x00, 0x02, 0x3c, 0x6e, 0x5e, 0x3c, 0x00, 0x02,
	0x37, 0x6e, 0x5e, 0x37, 0x00, 0x02, 0x30, 0x6e, 0x81, 0x20, 0x30, 0x00,
	0x20, 0x37, 0x6e, 0x81, 0x0e, 0x37, 0x00, 0x02, 0x34, 0x6e, 0x2e, 0x34,
	0x00, 0x62, 0x30, 0x6e, 0x5e, 0x30, 0x00, 0x32, 0x35, 0x6e, 0x5e, 0x35,
	0x00, 0x02, 0x37, 0x6e, 0x2e, 0x37, 0x00, 0x32, 0x36, 0x6e, 0x2e, 0x36,
	0x00, 0x02, 0x35, 0x6e, 0x5e, 0x35, 0x00, 0x02, 0x34, 0x6e, 0x46, 0x34,
	0x00, 0x02, 0x3c, 0x6e, 0x46, 0x3c, 0x00, 0x02, 0x40, 0x6e, 0x2e, 0x40,
	0x00, 0x02, 0x41, 0x6e, 0x5e, 0x41, 0x00, 0x02, 0x3e, 0x6e, 0x2e, 0x3e,
	0x00, 0x02, 0x40, 0x6e, 0x2e, 0x40, 0x00, 0x32, 0x3c, 0x6e, 0x5e, 0x3c,
	0x00, 0x02, 0x39, 0x6e, 0x2e, 0x39, 0x00, 0x02, 0x3b, 0x6e, 0x2e, 0x3b,
	0x00, 0x02, 0x37, 0x6e, 0x81, 0x0e, 0x37, 0x00, 0x02, 0x37, 0x6e, 0x81,
	0x0e, 0x37, 0x00, 0x02, 0x34, 0x6e, 0x2e, 0x34, 0x00, 0x62, 0x30, 0x6e,
	0x5e, 0x30, 0x00, 0x32, 0x35, 0x6e, 0x5e, 0x35, 0x00, 0x02, 0x37, 0x6e,
	0x2e, 0x37, 0x00, 0x32, 0x36, 0x6e, 0x2e, 0x36, 0x00, 0x02, 0x35, 0x6e,
	0x5e, 0x35, 0x00, 0x00, 0xff, 0x2f, 0x00
};

#endif /* OVERWORLD_4__MID_H */
